HIERARCHY
ROOT Hips
{
	OFFSET 0.000000 0.000000 0.000000 
	CHANNELS 6 Xposition Yposition Zposition Zrotation Yrotation Xrotation
	JOINT LeftUpLeg
	{
		OFFSET 1.363060 -1.794630 0.839290 
		CHANNELS 3 Zrotation Yrotation Xrotation
		JOINT LeftLeg
		{
			OFFSET 2.448110 -6.726130 0.000000 
			CHANNELS 3 Zrotation Yrotation Xrotation
			JOINT LeftFoot
			{
				OFFSET 2.562200 -7.039590 0.000000 
				CHANNELS 3 Zrotation Yrotation Xrotation
				JOINT LeftToeBase
				{
					OFFSET 0.157640 -0.433110 2.322550 
					CHANNELS 3 Zrotation Yrotation Xrotation
					End Site
					{
						OFFSET 0.000000 0.000000 0.000000 
					}
				}
			}
		}
	}
	JOINT RightUpLeg
	{
		OFFSET -1.305520 -1.794630 0.839290 
		CHANNELS 3 Zrotation Yrotation Xrotation
		JOINT RightLeg
		{
			OFFSET -2.542530 -6.985550 0.000000 
			CHANNELS 3 Zrotation Yrotation Xrotation
			JOINT RightFoot
			{
				OFFSET -2.568260 -7.056230 0.000000 
				CHANNELS 3 Zrotation Yrotation Xrotation
				JOINT RightToeBase
				{
					OFFSET -0.164730 -0.452590 2.363150 
					CHANNELS 3 Zrotation Yrotation Xrotation
					End Site
					{
						OFFSET 0.000000 0.000000 0.000000 
					}
				}
			}
		}
	}
	JOINT Spine
	{
		OFFSET 0.028270 2.035590 -0.193380 
		CHANNELS 3 Zrotation Yrotation Xrotation
		JOINT Spine1
		{
			OFFSET 0.056720 2.048850 -0.042750 
			CHANNELS 3 Zrotation Yrotation Xrotation
			JOINT Neck1
			{
				OFFSET -0.054170 1.746240 0.172020 
				CHANNELS 3 Zrotation Yrotation Xrotation
				JOINT Head
				{
					OFFSET 0.104070 1.761360 -0.123970 
					CHANNELS 3 Zrotation Yrotation Xrotation
					End Site
					{
						OFFSET 0.000000 0.000000 0.000000 
					}
				}
			}
			JOINT LeftArm
			{
				OFFSET 3.362410 1.200890 -0.311210 
				CHANNELS 3 Zrotation Yrotation Xrotation
				JOINT LeftForeArm
				{
					OFFSET 4.983000 -0.000000 -0.000000 
					CHANNELS 3 Zrotation Yrotation Xrotation
					JOINT LeftHand
					{
						OFFSET 3.483560 -0.000000 -0.000000 
						CHANNELS 3 Zrotation Yrotation Xrotation
						JOINT LeftHandIndex1
						{
							OFFSET 0.715260 -0.000000 -0.000000 
							CHANNELS 3 Zrotation Yrotation Xrotation
							End Site
							{
								OFFSET 0.000000 0.000000 0.000000 
							}
						}
					}
				}
			}
			JOINT RightArm
			{
				OFFSET -3.136600 1.374050 -0.404650 
				CHANNELS 3 Zrotation Yrotation Xrotation
				JOINT RightForeArm
				{
					OFFSET -5.241900 -0.000000 -0.000000 
					CHANNELS 3 Zrotation Yrotation Xrotation
					JOINT RightHand
					{
						OFFSET -3.444170 -0.000000 -0.000000 
						CHANNELS 3 Zrotation Yrotation Xrotation
						JOINT RightHandIndex1
						{
							OFFSET -0.622530 -0.000000 -0.000000 
							CHANNELS 3 Zrotation Yrotation Xrotation
							End Site
							{
								OFFSET 0.000000 0.000000 0.000000 
							}
						}
					}
				}
			}
		}
	}
}
MOTION
Frames: 9
Frame Time: 0.041667
-9.697169 17.707981 -7.976726 -2.601967 -15.932998 -5.477712 -16.536785 8.869979 -27.506778 8.109901 18.115419 54.562424 1.256854 -6.087945 2.630265 0.377600 -3.946700 -10.926700 25.066188 -3.828953 11.317881 0.141771 -6.370586 19.771745 3.232908 -16.467889 -19.920581 -0.000800 0.177700 -0.488200 1.896396 -1.166507 -0.659722 -0.744704 -0.144052 1.441790 4.504214 -6.209685 5.124440 0.352700 -2.846500 -4.708600 -70.261190 12.922617 19.832214 11.300520 -27.277462 -5.136806 -1.328032 -1.966703 -27.247652 -7.125000 0.000000 0.000000 68.655852 -2.429111 28.834165 -20.773897 34.993619 -9.256162 1.885249 0.985807 1.505428 7.125000 0.000000 0.000000 
-9.746094 17.690562 -7.858015 -2.842647 -15.940033 -5.282810 -16.611688 8.788736 -27.925297 7.181786 17.535808 51.684641 1.297141 -6.027142 2.754316 0.426300 -4.190400 -11.613100 25.197986 -4.205297 11.548745 0.128316 -6.365391 19.779072 3.168233 -16.211843 -19.729018 -0.003000 0.351700 -0.966400 1.881599 -1.087330 -0.610842 -0.747322 -0.089803 1.618118 4.786452 -6.789568 4.758178 0.690700 -3.141200 -4.904300 -70.330168 12.995622 19.526408 11.236383 -27.212951 -5.111917 -1.347821 -1.979172 -27.425093 -7.125000 0.000000 0.000000 68.659461 -1.870663 29.197268 -20.787535 34.972956 -9.233353 1.895950 0.976336 1.419837 7.125000 0.000000 0.000000 
-9.791686 17.670884 -7.739627 -3.093894 -15.995274 -5.057872 -16.618108 8.693341 -28.237148 6.251466 16.888114 48.727378 1.364238 -6.121014 2.952281 0.462900 -4.364100 -12.103200 25.297053 -4.611985 11.673466 0.101652 -6.395618 19.876881 3.092724 -15.893452 -19.458314 -0.007400 0.555200 -1.525700 1.871601 -1.036808 -0.556246 -0.731961 -0.049450 1.842669 5.079179 -7.348522 4.434451 1.027200 -3.423100 -5.059200 -70.460233 13.077449 19.270470 11.233244 -27.220102 -5.116847 -1.355516 -1.989443 -27.681188 -7.125000 0.000000 0.000000 68.638113 -1.300786 29.656890 -20.815533 34.967923 -9.215345 1.901139 0.973497 1.274764 7.125000 0.000000 0.000000 
-9.834697 17.649594 -7.621992 -3.370542 -16.091636 -4.801752 -16.530305 8.530484 -28.427094 5.341779 16.183076 45.742980 1.449027 -6.301277 3.165195 0.479600 -4.441000 -12.320800 25.397764 -5.020698 11.720650 0.065868 -6.453371 20.043014 3.012020 -15.546534 -19.150618 -0.014900 0.787300 -2.163800 1.864987 -1.010637 -0.499701 -0.712628 -0.021520 2.097425 5.375717 -7.889294 4.172527 1.352700 -3.695100 -5.159300 -70.627781 13.190646 19.095295 11.309088 -27.322090 -5.161774 -1.349277 -1.996864 -28.018407 -7.125000 0.000000 0.000000 68.615227 -0.769332 30.223227 -20.919325 35.035354 -9.238699 1.896205 0.977954 1.063555 7.125000 0.000000 0.000000 
-9.874805 17.627335 -7.505647 -3.709381 -16.234448 -4.504381 -16.306209 8.282714 -28.504528 4.478324 15.434678 42.789905 1.533715 -6.451802 3.319000 0.489100 -4.484100 -12.442700 25.552634 -5.399736 11.706542 0.025361 -6.532896 20.257652 2.930964 -15.197191 -18.831514 -0.025800 1.036000 -2.847900 1.860509 -0.992075 -0.445222 -0.717306 0.002311 2.357136 5.671784 -8.426359 3.975770 1.667100 -3.965200 -5.201500 -70.805405 13.342358 19.070999 11.479443 -27.536208 -5.253750 -1.329216 -2.003976 -28.436193 -7.125000 0.000000 0.000000 68.596258 -0.319069 30.903773 -21.144705 35.218295 -9.331966 1.880800 0.987329 0.791852 7.125000 0.000000 0.000000 
-9.912654 17.604862 -7.391023 -4.122285 -16.424788 -4.169462 -15.922630 7.901866 -28.451593 3.683284 14.662171 39.923849 1.593382 -6.418678 3.334153 0.505300 -4.556600 -12.648100 25.796883 -5.718029 11.663979 -0.015403 -6.626065 20.498062 2.853135 -14.872027 -18.543375 -0.039500 1.282800 -3.527300 1.858627 -0.978504 -0.394552 -0.745458 0.023028 2.601965 5.970440 -8.956381 3.832929 1.973000 -4.232700 -5.193900 -70.988855 13.519481 19.177103 11.738896 -27.850965 -5.389907 -1.300047 -2.010233 -28.881178 -7.125000 0.000000 0.000000 68.580205 0.039887 31.723406 -21.516195 35.536140 -9.509311 1.857107 0.999294 0.468273 7.125000 0.000000 0.000000 
-9.949321 17.582389 -7.278764 -4.602554 -16.660468 -3.811150 -15.378490 7.396688 -28.275460 2.973299 13.886473 37.198550 1.610641 -6.121649 3.212232 0.526400 -4.649600 -12.911900 26.143146 -5.947950 11.619285 -0.054432 -6.727858 20.752086 2.790336 -14.615300 -18.309023 -0.055800 1.524400 -4.192900 1.857934 -0.957315 -0.348427 -0.792170 0.046037 2.813978 6.276620 -9.486275 3.725109 2.274000 -4.501800 -5.151200 -71.163500 13.687946 19.402551 12.065811 -28.235064 -5.558125 -1.273117 -2.014409 -29.301451 -7.125000 0.000000 0.000000 68.561496 0.306880 32.684574 -22.034551 35.984157 -9.772229 1.829958 1.009946 0.103899 7.125000 0.000000 0.000000 
-9.985558 17.560453 -7.168763 -5.126535 -16.939542 -3.444609 -14.696465 6.771255 -27.975742 2.357798 13.129947 34.661017 1.573901 -5.533240 2.968165 0.552500 -4.761600 -13.229900 26.575698 -6.083102 11.593744 -0.091195 -6.834780 21.014290 2.740222 -14.426224 -18.150293 -0.072700 1.739900 -4.787300 1.857013 -0.919191 -0.306197 -0.846993 0.075290 2.986523 6.589626 -10.019517 3.636866 2.567900 -4.774200 -5.086300 -71.314646 13.810811 19.728256 12.431256 -28.650997 -5.743333 -1.250405 -2.018507 -29.665934 -7.125000 0.000000 0.000000 68.536535 0.502865 33.765221 -22.678263 36.535721 -10.109112 1.803390 1.015209 -0.258882 7.125000 0.000000 0.000000 
-10.021580 17.539270 -7.060590 -5.650535 -17.258203 -3.087114 -13.930137 6.028797 -27.562266 1.838226 12.415138 32.350123 1.477120 -4.674616 2.643163 0.577900 -4.868100 -13.532600 27.042705 -6.133924 11.583631 -0.128999 -6.949629 21.298318 2.701212 -14.297708 -18.066294 -0.090100 1.935700 -5.328000 1.854600 -0.860706 -0.267853 -0.885200 0.111116 3.112878 6.915987 -10.550025 3.549530 2.859900 -5.046700 -5.015200 -71.446352 13.862983 20.118092 12.803715 -29.060290 -5.928201 -1.238892 -2.021704 -29.959405 -7.125000 0.000000 0.000000 68.486317 0.659703 34.944920 -23.407090 37.148230 -10.497298 1.781196 1.014764 -0.579608 7.125000 0.000000 0.000000 
